<svg width="27" height="29" viewBox="0 0 27 29" fill="none" xmlns="http://www.w3.org/2000/svg">
<path d="M8.59091 1.8212e-06C7.78181 1.8212e-06 6.99087 0.239929 6.31812 0.689444C5.64538 1.13896 5.12103 1.77787 4.8114 2.52539C4.50177 3.2729 4.42076 4.09545 4.57861 4.88901C4.73646 5.68257 5.12608 6.41149 5.6982 6.98362C6.27032 7.55574 6.99926 7.94536 7.79281 8.10321C8.58637 8.26106 9.40892 8.18005 10.1564 7.87042C10.9039 7.56079 11.5429 7.03644 11.9924 6.3637C12.4419 5.69095 12.6818 4.90002 12.6818 4.09091C12.6818 3.00593 12.2508 1.9654 11.4836 1.1982C10.7164 0.431007 9.67589 1.8212e-06 8.59091 1.8212e-06ZM8.59091 6.54545C8.10545 6.54545 7.63089 6.4015 7.22724 6.13179C6.82359 5.86208 6.50899 5.47873 6.32321 5.03022C6.13743 4.58171 6.08882 4.08819 6.18353 3.61205C6.27824 3.13592 6.51201 2.69856 6.85528 2.35528C7.19856 2.01201 7.63592 1.77824 8.11205 1.68353C8.58819 1.58882 9.08171 1.63743 9.53022 1.82321C9.97873 2.00899 10.3621 2.32359 10.6318 2.72724C10.9015 3.13089 11.0455 3.60545 11.0455 4.09091C11.0455 4.7419 10.7869 5.36622 10.3265 5.82654C9.86622 6.28685 9.2419 6.54545 8.59091 6.54545ZM18.4091 8.18182C19.2182 8.18182 20.0091 7.94189 20.6819 7.49238C21.3546 7.04286 21.879 6.40395 22.1886 5.65643C22.4982 4.90892 22.5792 4.08637 22.4214 3.29281C22.2635 2.49926 21.8739 1.77032 21.3018 1.1982C20.7297 0.626077 20.0007 0.236456 19.2072 0.0786075C18.4136 -0.0792411 17.5911 0.00177253 16.8436 0.311404C16.0961 0.621035 15.4571 1.14538 15.0076 1.81812C14.5581 2.49087 14.3182 3.28181 14.3182 4.09091C14.3182 5.17589 14.7492 6.21642 15.5164 6.98362C16.2836 7.75081 17.3241 8.18182 18.4091 8.18182ZM18.4091 1.63637C18.8946 1.63637 19.3691 1.78032 19.7728 2.05003C20.1764 2.31974 20.491 2.70309 20.6768 3.1516C20.8626 3.60011 20.9112 4.09363 20.8165 4.56977C20.7218 5.0459 20.488 5.48326 20.1447 5.82654C19.8014 6.16981 19.3641 6.40358 18.8879 6.49829C18.4118 6.593 17.9183 6.54439 17.4698 6.35861C17.0213 6.17284 16.6379 5.85823 16.3682 5.45458C16.0985 5.05093 15.9545 4.57637 15.9545 4.09091C15.9545 3.43992 16.2131 2.8156 16.6735 2.35528C17.1338 1.89497 17.7581 1.63637 18.4091 1.63637ZM8.59091 9.81818C7.78181 9.81818 6.99087 10.0581 6.31812 10.5076C5.64538 10.9571 5.12103 11.5961 4.8114 12.3436C4.50177 13.0911 4.42076 13.9136 4.57861 14.7072C4.73646 15.5007 5.12608 16.2297 5.6982 16.8018C6.27032 17.3739 6.99926 17.7635 7.79281 17.9214C8.58637 18.0792 9.40892 17.9982 10.1564 17.6886C10.9039 17.379 11.5429 16.8546 11.9924 16.1819C12.4419 15.5091 12.6818 14.7182 12.6818 13.9091C12.6818 12.8241 12.2508 11.7836 11.4836 11.0164C10.7164 10.2492 9.67589 9.81818 8.59091 9.81818ZM8.59091 16.3636C8.10545 16.3636 7.63089 16.2197 7.22724 15.95C6.82359 15.6803 6.50899 15.2969 6.32321 14.8484C6.13743 14.3999 6.08882 13.9064 6.18353 13.4302C6.27824 12.9541 6.51201 12.5167 6.85528 12.1735C7.19856 11.8302 7.63592 11.5964 8.11205 11.5017C8.58819 11.407 9.08171 11.4556 9.53022 11.6414C9.97873 11.8272 10.3621 12.1418 10.6318 12.5454C10.9015 12.9491 11.0455 13.4236 11.0455 13.9091C11.0455 14.5601 10.7869 15.1844 10.3265 15.6447C9.86622 16.105 9.2419 16.3636 8.59091 16.3636ZM22.5 13.9091C22.5 14.1261 22.4138 14.3342 22.2604 14.4876C22.1069 14.6411 21.8988 14.7273 21.6818 14.7273H19.2273V17.1818C19.2273 17.3988 19.1411 17.6069 18.9876 17.7604C18.8342 17.9138 18.6261 18 18.4091 18C18.1921 18 17.984 17.9138 17.8305 17.7604C17.6771 17.6069 17.5909 17.3988 17.5909 17.1818V14.7273H15.1364C14.9194 14.7273 14.7113 14.6411 14.5578 14.4876C14.4044 14.3342 14.3182 14.1261 14.3182 13.9091C14.3182 13.6921 14.4044 13.484 14.5578 13.3305C14.7113 13.1771 14.9194 13.0909 15.1364 13.0909H17.5909V10.6364C17.5909 10.4194 17.6771 10.2113 17.8305 10.0578C17.984 9.90438 18.1921 9.81818 18.4091 9.81818C18.6261 9.81818 18.8342 9.90438 18.9876 10.0578C19.1411 10.2113 19.2273 10.4194 19.2273 10.6364V13.0909H21.6818C21.8988 13.0909 22.1069 13.1771 22.2604 13.3305C22.4138 13.484 22.5 13.6921 22.5 13.9091Z" fill="#808080"/>
<path d="M2.79297 22.0703L1.09375 27H0.0664062L2.20703 21.3125H2.86328L2.79297 22.0703ZM4.21484 27L2.51172 22.0703L2.4375 21.3125H3.09766L5.24609 27H4.21484ZM4.13281 24.8906V25.668H1.03906V24.8906H4.13281ZM7.51562 26.3281C7.66927 26.3281 7.80729 26.2982 7.92969 26.2383C8.05469 26.1758 8.15495 26.0898 8.23047 25.9805C8.30859 25.8711 8.35156 25.7448 8.35938 25.6016H9.24609C9.24089 25.875 9.16016 26.1237 9.00391 26.3477C8.84766 26.5716 8.64062 26.75 8.38281 26.8828C8.125 27.013 7.83984 27.0781 7.52734 27.0781C7.20443 27.0781 6.92318 27.0234 6.68359 26.9141C6.44401 26.8021 6.24479 26.6484 6.08594 26.4531C5.92708 26.2578 5.80729 26.0326 5.72656 25.7773C5.64844 25.5221 5.60938 25.2487 5.60938 24.957V24.8203C5.60938 24.5286 5.64844 24.2552 5.72656 24C5.80729 23.7422 5.92708 23.5156 6.08594 23.3203C6.24479 23.125 6.44401 22.9727 6.68359 22.8633C6.92318 22.7513 7.20312 22.6953 7.52344 22.6953C7.86198 22.6953 8.15885 22.763 8.41406 22.8984C8.66927 23.0312 8.86979 23.2174 9.01562 23.457C9.16406 23.694 9.24089 23.9701 9.24609 24.2852H8.35938C8.35156 24.1289 8.3125 23.9883 8.24219 23.8633C8.17448 23.7357 8.07812 23.6341 7.95312 23.5586C7.83073 23.4831 7.68359 23.4453 7.51172 23.4453C7.32161 23.4453 7.16406 23.4844 7.03906 23.5625C6.91406 23.638 6.81641 23.7422 6.74609 23.875C6.67578 24.0052 6.625 24.1523 6.59375 24.3164C6.5651 24.4779 6.55078 24.6458 6.55078 24.8203V24.957C6.55078 25.1315 6.5651 25.3008 6.59375 25.4648C6.6224 25.6289 6.67188 25.776 6.74219 25.9062C6.8151 26.0339 6.91406 26.1367 7.03906 26.2148C7.16406 26.2904 7.32292 26.3281 7.51562 26.3281ZM11.9062 22.7734V23.4609H9.52344V22.7734H11.9062ZM10.2109 21.7383H11.1523V25.832C11.1523 25.9622 11.1706 26.0625 11.207 26.1328C11.2461 26.2005 11.2995 26.2461 11.3672 26.2695C11.4349 26.293 11.5143 26.3047 11.6055 26.3047C11.6706 26.3047 11.7331 26.3008 11.793 26.293C11.8529 26.2852 11.901 26.2773 11.9375 26.2695L11.9414 26.9883C11.8633 27.0117 11.7721 27.0326 11.668 27.0508C11.5664 27.069 11.4492 27.0781 11.3164 27.0781C11.1003 27.0781 10.9089 27.0404 10.7422 26.9648C10.5755 26.8867 10.4453 26.7604 10.3516 26.5859C10.2578 26.4115 10.2109 26.1797 10.2109 25.8906V21.7383ZM13.6406 22.7734V27H12.6953V22.7734H13.6406ZM12.6328 21.6641C12.6328 21.5208 12.6797 21.4023 12.7734 21.3086C12.8698 21.2122 13.0026 21.1641 13.1719 21.1641C13.3385 21.1641 13.4701 21.2122 13.5664 21.3086C13.6628 21.4023 13.7109 21.5208 13.7109 21.6641C13.7109 21.8047 13.6628 21.9219 13.5664 22.0156C13.4701 22.1094 13.3385 22.1562 13.1719 22.1562C13.0026 22.1562 12.8698 22.1094 12.7734 22.0156C12.6797 21.9219 12.6328 21.8047 12.6328 21.6641ZM16.0469 26.2539L17.082 22.7734H18.0586L16.5898 27H15.9805L16.0469 26.2539ZM15.2539 22.7734L16.3086 26.2695L16.3594 27H15.75L14.2734 22.7734H15.2539ZM19.6484 22.7734V27H18.7031V22.7734H19.6484ZM18.6406 21.6641C18.6406 21.5208 18.6875 21.4023 18.7812 21.3086C18.8776 21.2122 19.0104 21.1641 19.1797 21.1641C19.3464 21.1641 19.4779 21.2122 19.5742 21.3086C19.6706 21.4023 19.7188 21.5208 19.7188 21.6641C19.7188 21.8047 19.6706 21.9219 19.5742 22.0156C19.4779 22.1094 19.3464 22.1562 19.1797 22.1562C19.0104 22.1562 18.8776 22.1094 18.7812 22.0156C18.6875 21.9219 18.6406 21.8047 18.6406 21.6641ZM22.6172 22.7734V23.4609H20.2344V22.7734H22.6172ZM20.9219 21.7383H21.8633V25.832C21.8633 25.9622 21.8815 26.0625 21.918 26.1328C21.957 26.2005 22.0104 26.2461 22.0781 26.2695C22.1458 26.293 22.2253 26.3047 22.3164 26.3047C22.3815 26.3047 22.444 26.3008 22.5039 26.293C22.5638 26.2852 22.612 26.2773 22.6484 26.2695L22.6523 26.9883C22.5742 27.0117 22.4831 27.0326 22.3789 27.0508C22.2773 27.069 22.1602 27.0781 22.0273 27.0781C21.8112 27.0781 21.6198 27.0404 21.4531 26.9648C21.2865 26.8867 21.1562 26.7604 21.0625 26.5859C20.9688 26.4115 20.9219 26.1797 20.9219 25.8906V21.7383ZM24.5703 26.5391L25.7188 22.7734H26.7266L25.0312 27.6445C24.9922 27.7487 24.9414 27.862 24.8789 27.9844C24.8164 28.1068 24.7344 28.2227 24.6328 28.332C24.5339 28.444 24.4102 28.5339 24.2617 28.6016C24.1133 28.6719 23.9336 28.707 23.7227 28.707C23.6393 28.707 23.5586 28.6992 23.4805 28.6836C23.4049 28.6706 23.3333 28.6562 23.2656 28.6406L23.2617 27.9219C23.2878 27.9245 23.319 27.9271 23.3555 27.9297C23.3945 27.9323 23.4258 27.9336 23.4492 27.9336C23.6055 27.9336 23.7357 27.9141 23.8398 27.875C23.944 27.8385 24.0286 27.7786 24.0938 27.6953C24.1615 27.612 24.2188 27.5 24.2656 27.3594L24.5703 26.5391ZM23.9219 22.7734L24.9258 25.9375L25.0938 26.9297L24.4414 27.0977L22.9062 22.7734H23.9219Z" fill="#808080"/>
</svg>
