<svg width="26" height="29" viewBox="0 0 26 29" fill="none" xmlns="http://www.w3.org/2000/svg">
<path d="M22 17.2174C22 17.425 21.9271 17.624 21.7972 17.7708C21.6674 17.9175 21.4913 18 21.3077 18H4.69231C4.5087 18 4.33261 17.9175 4.20277 17.7708C4.07294 17.624 4 17.425 4 17.2174C4 17.0098 4.07294 16.8108 4.20277 16.664C4.33261 16.5172 4.5087 16.4348 4.69231 16.4348H5.38462V10.1739C5.38462 9.96635 5.45755 9.76729 5.58739 9.62052C5.71722 9.47376 5.89331 9.3913 6.07692 9.3913H8.15385C8.33746 9.3913 8.51355 9.47376 8.64338 9.62052C8.77321 9.76729 8.84615 9.96635 8.84615 10.1739V16.4348H10.2308V5.47826C10.2308 5.2707 10.3037 5.07164 10.4335 4.92487C10.5634 4.77811 10.7395 4.69565 10.9231 4.69565H13.6923C13.8759 4.69565 14.052 4.77811 14.1818 4.92487C14.3117 5.07164 14.3846 5.2707 14.3846 5.47826V16.4348H15.7692V0.782609C15.7692 0.575048 15.8422 0.375989 15.972 0.229221C16.1018 0.0824533 16.2779 0 16.4615 0H19.9231C20.1067 0 20.2828 0.0824533 20.4126 0.229221C20.5424 0.375989 20.6154 0.575048 20.6154 0.782609V16.4348H21.3077C21.4913 16.4348 21.6674 16.5172 21.7972 16.664C21.9271 16.8108 22 17.0098 22 17.2174Z" fill="#443F91"/>
<path d="M4.33594 23.6875V24.4648H1.31641V23.6875H4.33594ZM1.55859 21.3125V27H0.578125V21.3125H1.55859ZM5.08984 21.3125V27H4.11328V21.3125H5.08984ZM7.17188 22.7734V27H6.22656V22.7734H7.17188ZM6.16406 21.6641C6.16406 21.5208 6.21094 21.4023 6.30469 21.3086C6.40104 21.2122 6.53385 21.1641 6.70312 21.1641C6.86979 21.1641 7.0013 21.2122 7.09766 21.3086C7.19401 21.4023 7.24219 21.5208 7.24219 21.6641C7.24219 21.8047 7.19401 21.9219 7.09766 22.0156C7.0013 22.1094 6.86979 22.1562 6.70312 22.1562C6.53385 22.1562 6.40104 22.1094 6.30469 22.0156C6.21094 21.9219 6.16406 21.8047 6.16406 21.6641ZM10.5742 25.8555C10.5742 25.7617 10.5508 25.6771 10.5039 25.6016C10.457 25.5234 10.3672 25.4531 10.2344 25.3906C10.1042 25.3281 9.91146 25.2708 9.65625 25.2188C9.43229 25.1693 9.22656 25.1107 9.03906 25.043C8.85417 24.9727 8.69531 24.888 8.5625 24.7891C8.42969 24.6901 8.32682 24.5729 8.25391 24.4375C8.18099 24.3021 8.14453 24.1458 8.14453 23.9688C8.14453 23.7969 8.18229 23.6341 8.25781 23.4805C8.33333 23.3268 8.44141 23.1914 8.58203 23.0742C8.72266 22.957 8.89323 22.8646 9.09375 22.7969C9.29688 22.7292 9.52344 22.6953 9.77344 22.6953C10.1276 22.6953 10.431 22.7552 10.6836 22.875C10.9388 22.9922 11.1341 23.1523 11.2695 23.3555C11.4049 23.556 11.4727 23.7826 11.4727 24.0352H10.5312C10.5312 23.9232 10.5026 23.819 10.4453 23.7227C10.3906 23.6237 10.3073 23.5443 10.1953 23.4844C10.0833 23.4219 9.94271 23.3906 9.77344 23.3906C9.61198 23.3906 9.47786 23.4167 9.37109 23.4688C9.26693 23.5182 9.1888 23.5833 9.13672 23.6641C9.08724 23.7448 9.0625 23.8333 9.0625 23.9297C9.0625 24 9.07552 24.0638 9.10156 24.1211C9.13021 24.1758 9.17708 24.2266 9.24219 24.2734C9.30729 24.3177 9.39583 24.3594 9.50781 24.3984C9.6224 24.4375 9.76562 24.4753 9.9375 24.5117C10.2604 24.5794 10.5378 24.6667 10.7695 24.7734C11.0039 24.8776 11.1836 25.013 11.3086 25.1797C11.4336 25.3438 11.4961 25.5521 11.4961 25.8047C11.4961 25.9922 11.4557 26.1641 11.375 26.3203C11.2969 26.474 11.1823 26.6081 11.0312 26.7227C10.8802 26.8346 10.6992 26.9219 10.4883 26.9844C10.2799 27.0469 10.0456 27.0781 9.78516 27.0781C9.40234 27.0781 9.07812 27.0104 8.8125 26.875C8.54688 26.737 8.34505 26.5612 8.20703 26.3477C8.07161 26.1315 8.00391 25.9076 8.00391 25.6758H8.91406C8.92448 25.8503 8.97266 25.9896 9.05859 26.0938C9.14714 26.1953 9.25651 26.2695 9.38672 26.3164C9.51953 26.3607 9.65625 26.3828 9.79688 26.3828C9.96615 26.3828 10.1081 26.3607 10.2227 26.3164C10.3372 26.2695 10.4245 26.207 10.4844 26.1289C10.5443 26.0482 10.5742 25.957 10.5742 25.8555ZM14.2578 22.7734V23.4609H11.875V22.7734H14.2578ZM12.5625 21.7383H13.5039V25.832C13.5039 25.9622 13.5221 26.0625 13.5586 26.1328C13.5977 26.2005 13.651 26.2461 13.7188 26.2695C13.7865 26.293 13.8659 26.3047 13.957 26.3047C14.0221 26.3047 14.0846 26.3008 14.1445 26.293C14.2044 26.2852 14.2526 26.2773 14.2891 26.2695L14.293 26.9883C14.2148 27.0117 14.1237 27.0326 14.0195 27.0508C13.918 27.069 13.8008 27.0781 13.668 27.0781C13.4518 27.0781 13.2604 27.0404 13.0938 26.9648C12.9271 26.8867 12.7969 26.7604 12.7031 26.5859C12.6094 26.4115 12.5625 26.1797 12.5625 25.8906V21.7383ZM14.7109 24.9336V24.8438C14.7109 24.5391 14.7552 24.2565 14.8438 23.9961C14.9323 23.7331 15.0599 23.5052 15.2266 23.3125C15.3958 23.1172 15.6016 22.9661 15.8438 22.8594C16.0885 22.75 16.3646 22.6953 16.6719 22.6953C16.9818 22.6953 17.2578 22.75 17.5 22.8594C17.7448 22.9661 17.9518 23.1172 18.1211 23.3125C18.2904 23.5052 18.4193 23.7331 18.5078 23.9961C18.5964 24.2565 18.6406 24.5391 18.6406 24.8438V24.9336C18.6406 25.2383 18.5964 25.5208 18.5078 25.7812C18.4193 26.0417 18.2904 26.2695 18.1211 26.4648C17.9518 26.6576 17.7461 26.8086 17.5039 26.918C17.2617 27.0247 16.987 27.0781 16.6797 27.0781C16.3698 27.0781 16.0924 27.0247 15.8477 26.918C15.6055 26.8086 15.3997 26.6576 15.2305 26.4648C15.0612 26.2695 14.9323 26.0417 14.8438 25.7812C14.7552 25.5208 14.7109 25.2383 14.7109 24.9336ZM15.6523 24.8438V24.9336C15.6523 25.1237 15.6719 25.3034 15.7109 25.4727C15.75 25.6419 15.8112 25.7904 15.8945 25.918C15.9779 26.0456 16.0846 26.1458 16.2148 26.2188C16.3451 26.2917 16.5 26.3281 16.6797 26.3281C16.8542 26.3281 17.0052 26.2917 17.1328 26.2188C17.263 26.1458 17.3698 26.0456 17.4531 25.918C17.5365 25.7904 17.5977 25.6419 17.6367 25.4727C17.6784 25.3034 17.6992 25.1237 17.6992 24.9336V24.8438C17.6992 24.6562 17.6784 24.4792 17.6367 24.3125C17.5977 24.1432 17.5352 23.9935 17.4492 23.8633C17.3659 23.7331 17.2591 23.6315 17.1289 23.5586C17.0013 23.4831 16.849 23.4453 16.6719 23.4453C16.4948 23.4453 16.3411 23.4831 16.2109 23.5586C16.0833 23.6315 15.9779 23.7331 15.8945 23.8633C15.8112 23.9935 15.75 24.1432 15.7109 24.3125C15.6719 24.4792 15.6523 24.6562 15.6523 24.8438ZM20.375 23.5781V27H19.4336V22.7734H20.332L20.375 23.5781ZM21.668 22.7461L21.6602 23.6211C21.6029 23.6107 21.5404 23.6029 21.4727 23.5977C21.4076 23.5924 21.3424 23.5898 21.2773 23.5898C21.1159 23.5898 20.974 23.6133 20.8516 23.6602C20.7292 23.7044 20.6263 23.7695 20.543 23.8555C20.4622 23.9388 20.3997 24.0404 20.3555 24.1602C20.3112 24.2799 20.2852 24.4141 20.2773 24.5625L20.0625 24.5781C20.0625 24.3125 20.0885 24.0664 20.1406 23.8398C20.1927 23.6133 20.2708 23.4141 20.375 23.2422C20.4818 23.0703 20.6146 22.9362 20.7734 22.8398C20.9349 22.7435 21.1211 22.6953 21.332 22.6953C21.3893 22.6953 21.4505 22.7005 21.5156 22.7109C21.5833 22.7214 21.6341 22.7331 21.668 22.7461ZM23.5547 26.5391L24.7031 22.7734H25.7109L24.0156 27.6445C23.9766 27.7487 23.9258 27.862 23.8633 27.9844C23.8008 28.1068 23.7188 28.2227 23.6172 28.332C23.5182 28.444 23.3945 28.5339 23.2461 28.6016C23.0977 28.6719 22.918 28.707 22.707 28.707C22.6237 28.707 22.543 28.6992 22.4648 28.6836C22.3893 28.6706 22.3177 28.6562 22.25 28.6406L22.2461 27.9219C22.2721 27.9245 22.3034 27.9271 22.3398 27.9297C22.3789 27.9323 22.4102 27.9336 22.4336 27.9336C22.5898 27.9336 22.7201 27.9141 22.8242 27.875C22.9284 27.8385 23.013 27.7786 23.0781 27.6953C23.1458 27.612 23.2031 27.5 23.25 27.3594L23.5547 26.5391ZM22.9062 22.7734L23.9102 25.9375L24.0781 26.9297L23.4258 27.0977L21.8906 22.7734H22.9062Z" fill="#443F91"/>
</svg>
