<svg width="22" height="29" viewBox="0 0 22 29" fill="none" xmlns="http://www.w3.org/2000/svg">
<path d="M20 8.64012V17.28C20 17.471 19.921 17.6541 19.7803 17.7891C19.6397 17.9241 19.4489 18 19.25 18H2.75001C2.5511 18 2.36033 17.9241 2.21968 17.7891C2.07903 17.6541 2.00001 17.471 2.00001 17.28V8.64012C1.99931 8.45081 2.03782 8.26325 2.1133 8.08835C2.18878 7.91345 2.29973 7.7547 2.4397 7.62133L9.93969 0.421427C10.221 0.151582 10.6023 0 11 0C11.3977 0 11.779 0.151582 12.0603 0.421427L19.5603 7.62133C19.7003 7.7547 19.8112 7.91345 19.8867 8.08835C19.9622 8.26325 20.0007 8.45081 20 8.64012Z" fill="#443F91"/>
<path d="M4.33594 23.6875V24.4648H1.31641V23.6875H4.33594ZM1.55859 21.3125V27H0.578125V21.3125H1.55859ZM5.08984 21.3125V27H4.11328V21.3125H5.08984ZM5.98438 24.9336V24.8438C5.98438 24.5391 6.02865 24.2565 6.11719 23.9961C6.20573 23.7331 6.33333 23.5052 6.5 23.3125C6.66927 23.1172 6.875 22.9661 7.11719 22.8594C7.36198 22.75 7.63802 22.6953 7.94531 22.6953C8.25521 22.6953 8.53125 22.75 8.77344 22.8594C9.01823 22.9661 9.22526 23.1172 9.39453 23.3125C9.5638 23.5052 9.69271 23.7331 9.78125 23.9961C9.86979 24.2565 9.91406 24.5391 9.91406 24.8438V24.9336C9.91406 25.2383 9.86979 25.5208 9.78125 25.7812C9.69271 26.0417 9.5638 26.2695 9.39453 26.4648C9.22526 26.6576 9.01953 26.8086 8.77734 26.918C8.53516 27.0247 8.26042 27.0781 7.95312 27.0781C7.64323 27.0781 7.36589 27.0247 7.12109 26.918C6.87891 26.8086 6.67318 26.6576 6.50391 26.4648C6.33464 26.2695 6.20573 26.0417 6.11719 25.7812C6.02865 25.5208 5.98438 25.2383 5.98438 24.9336ZM6.92578 24.8438V24.9336C6.92578 25.1237 6.94531 25.3034 6.98438 25.4727C7.02344 25.6419 7.08464 25.7904 7.16797 25.918C7.2513 26.0456 7.35807 26.1458 7.48828 26.2188C7.61849 26.2917 7.77344 26.3281 7.95312 26.3281C8.1276 26.3281 8.27865 26.2917 8.40625 26.2188C8.53646 26.1458 8.64323 26.0456 8.72656 25.918C8.8099 25.7904 8.87109 25.6419 8.91016 25.4727C8.95182 25.3034 8.97266 25.1237 8.97266 24.9336V24.8438C8.97266 24.6562 8.95182 24.4792 8.91016 24.3125C8.87109 24.1432 8.80859 23.9935 8.72266 23.8633C8.63932 23.7331 8.53255 23.6315 8.40234 23.5586C8.27474 23.4831 8.1224 23.4453 7.94531 23.4453C7.76823 23.4453 7.61458 23.4831 7.48438 23.5586C7.35677 23.6315 7.2513 23.7331 7.16797 23.8633C7.08464 23.9935 7.02344 24.1432 6.98438 24.3125C6.94531 24.4792 6.92578 24.6562 6.92578 24.8438ZM11.6445 23.6328V27H10.7031V22.7734H11.5898L11.6445 23.6328ZM11.4922 24.7305L11.1719 24.7266C11.1719 24.4349 11.2083 24.1654 11.2812 23.918C11.3542 23.6706 11.4609 23.4557 11.6016 23.2734C11.7422 23.0885 11.9167 22.9466 12.125 22.8477C12.3359 22.7461 12.5794 22.6953 12.8555 22.6953C13.0482 22.6953 13.224 22.724 13.3828 22.7812C13.5443 22.8359 13.6836 22.9232 13.8008 23.043C13.9206 23.1628 14.0117 23.3164 14.0742 23.5039C14.1393 23.6914 14.1719 23.918 14.1719 24.1836V27H13.2305V24.2656C13.2305 24.0599 13.1992 23.8984 13.1367 23.7812C13.0768 23.6641 12.9896 23.5807 12.875 23.5312C12.763 23.4792 12.6289 23.4531 12.4727 23.4531C12.2956 23.4531 12.1445 23.487 12.0195 23.5547C11.8971 23.6224 11.7969 23.7148 11.7188 23.832C11.6406 23.9492 11.5833 24.0846 11.5469 24.2383C11.5104 24.3919 11.4922 24.556 11.4922 24.7305ZM14.1133 24.4805L13.6719 24.5781C13.6719 24.3229 13.707 24.082 13.7773 23.8555C13.8503 23.6263 13.9557 23.4258 14.0938 23.2539C14.2344 23.0794 14.4076 22.9427 14.6133 22.8438C14.819 22.7448 15.0547 22.6953 15.3203 22.6953C15.5365 22.6953 15.7292 22.7253 15.8984 22.7852C16.0703 22.8424 16.2161 22.9336 16.3359 23.0586C16.4557 23.1836 16.5469 23.3464 16.6094 23.5469C16.6719 23.7448 16.7031 23.9844 16.7031 24.2656V27H15.7578V24.2617C15.7578 24.0482 15.7266 23.8828 15.6641 23.7656C15.6042 23.6484 15.5182 23.5677 15.4062 23.5234C15.2943 23.4766 15.1602 23.4531 15.0039 23.4531C14.8581 23.4531 14.7292 23.4805 14.6172 23.5352C14.5078 23.5872 14.4154 23.6615 14.3398 23.7578C14.2643 23.8516 14.207 23.9596 14.168 24.082C14.1315 24.2044 14.1133 24.3372 14.1133 24.4805ZM19.5352 27.0781C19.2227 27.0781 18.9401 27.0273 18.6875 26.9258C18.4375 26.8216 18.224 26.6771 18.0469 26.4922C17.8724 26.3073 17.7383 26.0898 17.6445 25.8398C17.5508 25.5898 17.5039 25.3203 17.5039 25.0312V24.875C17.5039 24.5443 17.5521 24.2448 17.6484 23.9766C17.7448 23.7083 17.8789 23.4792 18.0508 23.2891C18.2227 23.0964 18.4258 22.9492 18.6602 22.8477C18.8945 22.7461 19.1484 22.6953 19.4219 22.6953C19.724 22.6953 19.9883 22.7461 20.2148 22.8477C20.4414 22.9492 20.6289 23.0924 20.7773 23.2773C20.9284 23.4596 21.0404 23.6771 21.1133 23.9297C21.1888 24.1823 21.2266 24.4609 21.2266 24.7656V25.168H17.9609V24.4922H20.2969V24.418C20.2917 24.2487 20.2578 24.0898 20.1953 23.9414C20.1354 23.793 20.043 23.6732 19.918 23.582C19.793 23.4909 19.6263 23.4453 19.418 23.4453C19.2617 23.4453 19.1224 23.4792 19 23.5469C18.8802 23.612 18.7799 23.707 18.6992 23.832C18.6185 23.957 18.556 24.1081 18.5117 24.2852C18.4701 24.4596 18.4492 24.6562 18.4492 24.875V25.0312C18.4492 25.2161 18.474 25.388 18.5234 25.5469C18.5755 25.7031 18.651 25.8398 18.75 25.957C18.849 26.0742 18.9688 26.1667 19.1094 26.2344C19.25 26.2995 19.4102 26.332 19.5898 26.332C19.8164 26.332 20.0182 26.2865 20.1953 26.1953C20.3724 26.1042 20.526 25.9753 20.6562 25.8086L21.1523 26.2891C21.0612 26.4219 20.9427 26.5495 20.7969 26.6719C20.651 26.7917 20.4727 26.8893 20.2617 26.9648C20.0534 27.0404 19.8112 27.0781 19.5352 27.0781Z" fill="#443F91"/>
</svg>
