<svg width="19" height="14" viewBox="0 0 19 14" fill="none" xmlns="http://www.w3.org/2000/svg">
<path d="M2.5 0.399902C1.96957 0.399902 1.46086 0.613858 1.08579 0.994701C0.710714 1.37554 0.5 1.89208 0.5 2.43067L0.5 11.5691C0.5 12.1077 0.710714 12.6243 1.08579 13.0051C1.46086 13.3859 1.96957 13.5999 2.5 13.5999H6.5V0.399902H2.5Z" fill="#009A49"/>
<path d="M6.5 0.399902H12.5V13.5999H6.5V0.399902Z" fill="#EEEEEE"/>
<path d="M16.5 0.399902H12.5V13.5999H16.5C17.0304 13.5999 17.5391 13.3859 17.9142 13.0051C18.2893 12.6243 18.5 12.1077 18.5 11.5691V2.43067C18.5 1.89208 18.2893 1.37554 17.9142 0.994701C17.5391 0.613858 17.0304 0.399902 16.5 0.399902Z" fill="#009A49"/>
</svg>
