<svg width="24" height="29" viewBox="0 0 24 29" fill="none" xmlns="http://www.w3.org/2000/svg">
<path d="M20.6537 3.65965L20.2506 3.43108C20.2979 3.18514 20.2979 2.93268 20.2506 2.68674L20.6537 2.45817C20.8127 2.36803 20.9287 2.21955 20.9763 2.04538C21.0238 1.87121 20.9989 1.68563 20.9072 1.52946C20.8154 1.37329 20.6642 1.25932 20.4869 1.21263C20.3096 1.16594 20.1207 1.19035 19.9617 1.28049L19.5578 1.50991C19.3645 1.34699 19.1422 1.22053 18.9021 1.1369V0.679758C18.9021 0.499475 18.8292 0.326576 18.6994 0.199096C18.5697 0.0716171 18.3936 0 18.2101 0C18.0266 0 17.8506 0.0716171 17.7208 0.199096C17.591 0.326576 17.5181 0.499475 17.5181 0.679758V1.1369C17.2781 1.22053 17.0558 1.34699 16.8624 1.50991L16.4585 1.28049C16.3798 1.23586 16.2929 1.20689 16.2028 1.19525C16.1126 1.18361 16.0211 1.18951 15.9333 1.21263C15.8455 1.23575 15.7632 1.27563 15.6911 1.32999C15.619 1.38435 15.5585 1.45213 15.5131 1.52946C15.4676 1.60678 15.4381 1.69214 15.4263 1.78067C15.4144 1.86919 15.4204 1.95914 15.444 2.04538C15.4675 2.13162 15.5081 2.21246 15.5634 2.28329C15.6188 2.35411 15.6878 2.41354 15.7665 2.45817L16.1696 2.68674C16.1223 2.93268 16.1223 3.18514 16.1696 3.43108L15.7665 3.65965C15.6345 3.73443 15.5313 3.84993 15.473 3.9882C15.4146 4.12648 15.4044 4.27981 15.4438 4.4244C15.4832 4.56899 15.5702 4.69675 15.6911 4.78785C15.812 4.87895 15.9601 4.9283 16.1125 4.92825C16.234 4.92861 16.3534 4.89724 16.4585 4.83733L16.8624 4.60791C17.0558 4.77083 17.2781 4.89729 17.5181 4.98093V5.43806C17.5181 5.61835 17.591 5.79125 17.7208 5.91873C17.8506 6.0462 18.0266 6.11782 18.2101 6.11782C18.3936 6.11782 18.5697 6.0462 18.6994 5.91873C18.8292 5.79125 18.9021 5.61835 18.9021 5.43806V4.98093C19.1422 4.89729 19.3645 4.77083 19.5578 4.60791L19.9617 4.83733C20.0668 4.89724 20.1862 4.92861 20.3077 4.92825C20.4601 4.9283 20.6083 4.87895 20.7292 4.78785C20.8501 4.69675 20.937 4.56899 20.9764 4.4244C21.0159 4.27981 21.0056 4.12648 20.9473 3.9882C20.8889 3.84993 20.7857 3.73443 20.6537 3.65965ZM17.5181 3.05891C17.5181 2.92447 17.5587 2.79304 17.6347 2.68126C17.7108 2.56947 17.8189 2.48235 17.9453 2.4309C18.0717 2.37945 18.2109 2.36599 18.3451 2.39221C18.4794 2.41844 18.6027 2.48318 18.6994 2.57825C18.7962 2.67332 18.8621 2.79444 18.8888 2.9263C18.9155 3.05816 18.9018 3.19483 18.8494 3.31904C18.7971 3.44325 18.7084 3.54942 18.5946 3.62411C18.4808 3.6988 18.347 3.73867 18.2101 3.73867C18.0266 3.73867 17.8506 3.66705 17.7208 3.53957C17.591 3.41209 17.5181 3.23919 17.5181 3.05891ZM20.0569 7.14681C19.8759 7.17656 19.7143 7.27572 19.6077 7.42248C19.5012 7.56924 19.4583 7.75157 19.4886 7.92938C19.5588 8.34158 19.5941 8.75879 19.5941 9.17673C19.5957 11.0071 18.9109 12.774 17.6704 14.1398C16.8986 13.0412 15.8134 12.1913 14.5512 11.6969C15.2292 11.1724 15.7239 10.4533 15.9666 9.63973C16.2093 8.82615 16.1878 7.95851 15.9053 7.15747C15.6227 6.35642 15.093 5.66178 14.3899 5.17015C13.6868 4.67851 12.8452 4.41433 11.9821 4.41433C11.1191 4.41433 10.2775 4.67851 9.57439 5.17015C8.87128 5.66178 8.3416 6.35642 8.05902 7.15747C7.77644 7.95851 7.755 8.82615 7.99768 9.63973C8.24036 10.4533 8.7351 11.1724 9.4131 11.6969C8.15091 12.1913 7.06569 13.0412 6.29392 14.1398C5.32055 13.0624 4.68474 11.7317 4.46293 10.3077C4.24112 8.88376 4.44276 7.42718 5.0436 6.11312C5.64443 4.79906 6.61889 3.68345 7.84981 2.90045C9.08072 2.11744 10.5157 1.70038 11.9821 1.69939C12.4076 1.69933 12.8323 1.734 13.252 1.80306C13.4321 1.83099 13.6163 1.78789 13.7643 1.68316C13.9123 1.57842 14.0122 1.42051 14.0423 1.24377C14.0724 1.06704 14.0303 0.885775 13.925 0.739416C13.8198 0.593057 13.6599 0.49344 13.4803 0.462235C11.6011 0.151684 9.66995 0.435839 7.96581 1.27367C6.26168 2.11151 4.8727 3.45967 3.99941 5.1235C3.12613 6.78734 2.81374 8.68074 3.10733 10.5304C3.40093 12.38 4.28533 14.0901 5.63284 15.4137C6.98035 16.7374 8.72124 17.6062 10.6041 17.8946C12.4871 18.183 14.4146 17.8761 16.1083 17.0183C17.8021 16.1604 19.1746 14.796 20.0275 13.122C20.8804 11.448 21.1697 9.55107 20.8535 7.70506C20.8233 7.52726 20.7223 7.36856 20.5729 7.26386C20.4235 7.15917 20.2379 7.11707 20.0569 7.14681ZM9.21415 8.49697C9.21415 7.9592 9.37649 7.4335 9.68064 6.98636C9.98479 6.53922 10.4171 6.19071 10.9229 5.98492C11.4287 5.77912 11.9852 5.72527 12.5221 5.83019C13.0591 5.9351 13.5523 6.19407 13.9394 6.57433C14.3265 6.95459 14.5901 7.43908 14.6969 7.96652C14.8037 8.49396 14.7489 9.04066 14.5394 9.5375C14.3299 10.0343 13.9751 10.459 13.5199 10.7578C13.0648 11.0565 12.5296 11.216 11.9821 11.216C11.248 11.216 10.544 10.9295 10.0249 10.4196C9.50577 9.9097 9.21415 9.21811 9.21415 8.49697ZM7.31807 15.0821C7.81868 14.3131 8.50831 13.6801 9.32341 13.2417C10.1385 12.8033 11.0529 12.5735 11.9821 12.5735C12.9114 12.5735 13.8258 12.8033 14.6409 13.2417C15.456 13.6801 16.1456 14.3131 16.6462 15.0821C15.3127 16.1009 13.6715 16.654 11.9821 16.654C10.2928 16.654 8.65161 16.1009 7.31807 15.0821Z" fill="#808080"/>
<path d="M2.73828 24.8789H1.25781V24.1016H2.73828C2.99609 24.1016 3.20443 24.0599 3.36328 23.9766C3.52214 23.8932 3.63802 23.7786 3.71094 23.6328C3.78646 23.4844 3.82422 23.3151 3.82422 23.125C3.82422 22.9453 3.78646 22.7773 3.71094 22.6211C3.63802 22.4622 3.52214 22.3346 3.36328 22.2383C3.20443 22.1419 2.99609 22.0938 2.73828 22.0938H1.55859V27H0.578125V21.3125H2.73828C3.17839 21.3125 3.55208 21.3906 3.85938 21.5469C4.16927 21.7005 4.40495 21.9141 4.56641 22.1875C4.72786 22.4583 4.80859 22.7682 4.80859 23.1172C4.80859 23.4844 4.72786 23.7995 4.56641 24.0625C4.40495 24.3255 4.16927 24.5273 3.85938 24.668C3.55208 24.8086 3.17839 24.8789 2.73828 24.8789ZM6.53906 23.5781V27H5.59766V22.7734H6.49609L6.53906 23.5781ZM7.83203 22.7461L7.82422 23.6211C7.76693 23.6107 7.70443 23.6029 7.63672 23.5977C7.57161 23.5924 7.50651 23.5898 7.44141 23.5898C7.27995 23.5898 7.13802 23.6133 7.01562 23.6602C6.89323 23.7044 6.79036 23.7695 6.70703 23.8555C6.6263 23.9388 6.5638 24.0404 6.51953 24.1602C6.47526 24.2799 6.44922 24.4141 6.44141 24.5625L6.22656 24.5781C6.22656 24.3125 6.2526 24.0664 6.30469 23.8398C6.35677 23.6133 6.4349 23.4141 6.53906 23.2422C6.64583 23.0703 6.77865 22.9362 6.9375 22.8398C7.09896 22.7435 7.28516 22.6953 7.49609 22.6953C7.55339 22.6953 7.61458 22.7005 7.67969 22.7109C7.7474 22.7214 7.79818 22.7331 7.83203 22.7461ZM8.14062 24.9336V24.8438C8.14062 24.5391 8.1849 24.2565 8.27344 23.9961C8.36198 23.7331 8.48958 23.5052 8.65625 23.3125C8.82552 23.1172 9.03125 22.9661 9.27344 22.8594C9.51823 22.75 9.79427 22.6953 10.1016 22.6953C10.4115 22.6953 10.6875 22.75 10.9297 22.8594C11.1745 22.9661 11.3815 23.1172 11.5508 23.3125C11.7201 23.5052 11.849 23.7331 11.9375 23.9961C12.026 24.2565 12.0703 24.5391 12.0703 24.8438V24.9336C12.0703 25.2383 12.026 25.5208 11.9375 25.7812C11.849 26.0417 11.7201 26.2695 11.5508 26.4648C11.3815 26.6576 11.1758 26.8086 10.9336 26.918C10.6914 27.0247 10.4167 27.0781 10.1094 27.0781C9.79948 27.0781 9.52214 27.0247 9.27734 26.918C9.03516 26.8086 8.82943 26.6576 8.66016 26.4648C8.49089 26.2695 8.36198 26.0417 8.27344 25.7812C8.1849 25.5208 8.14062 25.2383 8.14062 24.9336ZM9.08203 24.8438V24.9336C9.08203 25.1237 9.10156 25.3034 9.14062 25.4727C9.17969 25.6419 9.24089 25.7904 9.32422 25.918C9.40755 26.0456 9.51432 26.1458 9.64453 26.2188C9.77474 26.2917 9.92969 26.3281 10.1094 26.3281C10.2839 26.3281 10.4349 26.2917 10.5625 26.2188C10.6927 26.1458 10.7995 26.0456 10.8828 25.918C10.9661 25.7904 11.0273 25.6419 11.0664 25.4727C11.1081 25.3034 11.1289 25.1237 11.1289 24.9336V24.8438C11.1289 24.6562 11.1081 24.4792 11.0664 24.3125C11.0273 24.1432 10.9648 23.9935 10.8789 23.8633C10.7956 23.7331 10.6888 23.6315 10.5586 23.5586C10.431 23.4831 10.2786 23.4453 10.1016 23.4453C9.92448 23.4453 9.77083 23.4831 9.64062 23.5586C9.51302 23.6315 9.40755 23.7331 9.32422 23.8633C9.24089 23.9935 9.17969 24.1432 9.14062 24.3125C9.10156 24.4792 9.08203 24.6562 9.08203 24.8438ZM14.0703 27H13.125V22.5C13.125 22.1589 13.1927 21.8711 13.3281 21.6367C13.4661 21.4023 13.6628 21.224 13.918 21.1016C14.1758 20.9792 14.4818 20.918 14.8359 20.918C15.0443 20.918 15.2448 20.9401 15.4375 20.9844C15.6328 21.0286 15.8346 21.0846 16.043 21.1523L15.8984 21.918C15.7656 21.8737 15.6185 21.832 15.457 21.793C15.2956 21.7513 15.1094 21.7305 14.8984 21.7305C14.6146 21.7305 14.4049 21.7956 14.2695 21.9258C14.1367 22.0534 14.0703 22.2448 14.0703 22.5V27ZM14.918 22.7734V23.4609H12.4766V22.7734H14.918ZM16.4883 22.7734V27H15.5469V22.7734H16.4883ZM18.5469 21V27H17.6016V21H18.5469ZM21.4414 27.0781C21.1289 27.0781 20.8464 27.0273 20.5938 26.9258C20.3438 26.8216 20.1302 26.6771 19.9531 26.4922C19.7786 26.3073 19.6445 26.0898 19.5508 25.8398C19.457 25.5898 19.4102 25.3203 19.4102 25.0312V24.875C19.4102 24.5443 19.4583 24.2448 19.5547 23.9766C19.651 23.7083 19.7852 23.4792 19.957 23.2891C20.1289 23.0964 20.332 22.9492 20.5664 22.8477C20.8008 22.7461 21.0547 22.6953 21.3281 22.6953C21.6302 22.6953 21.8945 22.7461 22.1211 22.8477C22.3477 22.9492 22.5352 23.0924 22.6836 23.2773C22.8346 23.4596 22.9466 23.6771 23.0195 23.9297C23.0951 24.1823 23.1328 24.4609 23.1328 24.7656V25.168H19.8672V24.4922H22.2031V24.418C22.1979 24.2487 22.1641 24.0898 22.1016 23.9414C22.0417 23.793 21.9492 23.6732 21.8242 23.582C21.6992 23.4909 21.5326 23.4453 21.3242 23.4453C21.168 23.4453 21.0286 23.4792 20.9062 23.5469C20.7865 23.612 20.6862 23.707 20.6055 23.832C20.5247 23.957 20.4622 24.1081 20.418 24.2852C20.3763 24.4596 20.3555 24.6562 20.3555 24.875V25.0312C20.3555 25.2161 20.3802 25.388 20.4297 25.5469C20.4818 25.7031 20.5573 25.8398 20.6562 25.957C20.7552 26.0742 20.875 26.1667 21.0156 26.2344C21.1562 26.2995 21.3164 26.332 21.4961 26.332C21.7227 26.332 21.9245 26.2865 22.1016 26.1953C22.2786 26.1042 22.4323 25.9753 22.5625 25.8086L23.0586 26.2891C22.9674 26.4219 22.849 26.5495 22.7031 26.6719C22.5573 26.7917 22.3789 26.8893 22.168 26.9648C21.9596 27.0404 21.7174 27.0781 21.4414 27.0781Z" fill="#808080"/>
</svg>
